<svg viewBox="0 0 40 40" fill="none" xmlns="http://www.w3.org/2000/svg">
<g id="Logo">
<circle id="BG" cx="20" cy="20" r="20" fill="var(--fill-0, #050505)"/>
<g id="Group">
<path id="Vector" d="M22.7848 20.1746C24.1707 21.1991 24.5852 21.6011 24.8001 22.6377C25.0633 23.91 24.1313 25.0947 21.7802 25.5964C21.6228 25.6296 20.8572 25.7596 20.2611 25.8049C19.8738 25.8351 19.4592 25.8472 19.0174 25.8472C18.8752 25.8472 18.736 25.8472 18.5877 25.8412C17.5861 25.817 16.639 25.6659 15.7615 25.4332C15.7403 25.4271 15.7191 25.4211 15.6949 25.415C15.6162 25.3939 15.5376 25.3727 15.4619 25.3486C14.9959 25.2126 14.5571 25.0524 14.1456 24.8711C14.1365 24.868 14.1274 24.862 14.1184 24.859C14.0336 24.8227 13.9489 24.7834 13.8672 24.7471C13.837 24.732 13.8097 24.7199 13.7795 24.7048C13.722 24.6776 13.6645 24.6474 13.607 24.6202C13.5616 24.5991 13.5162 24.5749 13.4738 24.5537C13.4345 24.5326 13.3982 24.5144 13.3589 24.4933C13.3044 24.4631 13.2499 24.4359 13.1985 24.4056C13.1501 24.3784 13.1047 24.3512 13.0593 24.324C13.026 24.3059 12.9897 24.2848 12.9564 24.2666C12.9564 24.2666 12.9534 24.2666 12.9503 24.2636C9.20418 22.0514 8.02405 18.319 8.02405 18.319C8.02405 18.319 7.38859 26.3791 12.6508 28.3647C12.6508 28.3647 11.6068 29.4436 8.93184 28.9117C8.93184 28.9117 11.5281 32.1061 18.8692 31.9973C29.4813 31.8402 31.3544 21.2445 22.7878 20.1716L22.7848 20.1746Z" fill="var(--fill-0, #37FF00)"/>
<g id="Vector_2">
</g>
<path id="Vector_3" d="M18.5394 14.3267C18.5394 14.3267 18.5607 14.3237 18.5729 14.3207C18.5668 14.3207 18.5607 14.3207 18.5546 14.3207C18.5485 14.3207 18.5455 14.3207 18.5394 14.3237V14.3267Z" fill="var(--fill-0, #37FF00)"/>
<path id="Vector_4" d="M22.7971 20.226C24.183 21.2505 24.6429 21.7341 24.8124 22.6891C25.2299 25.0403 21.8651 25.5692 21.8651 25.5692C21.7077 25.6024 20.8544 25.7596 20.2613 25.8049C19.874 25.8351 19.5623 25.8442 19.1205 25.8442C18.9783 25.8442 18.8391 25.8442 18.6908 25.8381C17.6892 25.814 16.7814 25.6991 15.9039 25.4694C9.7218 23.8314 8.02423 18.319 8.02423 18.319C9.4192 27.6605 18.4154 27.3794 18.4154 27.3794C17.6015 27.9506 16.5605 28.1682 16.5605 28.1682C16.5605 28.1682 19.4412 28.9328 22.5852 27.9174C24.9485 27.1558 26.0076 25.7535 26.2588 24.182C26.6945 21.4802 22.794 20.223 22.794 20.223L22.7971 20.226Z" fill="var(--fill-0, #B7FF00)"/>
<path id="Vector_5" d="M26.5461 11.7216C26.5461 11.7216 27.5144 10.679 30.2227 10.7697C30.2227 10.7697 25.1118 6.36335 17.2896 8.66624C10 10.812 8.62321 20.0023 18.1944 21.1145C15.2229 18.73 14.1093 15.6414 18.5666 14.5353C18.5726 14.5353 18.5757 14.5353 18.5817 14.5322C18.5878 14.5322 18.5938 14.5322 18.5999 14.5322C19.4532 14.36 20.4639 14.2693 21.5684 14.3116C21.7378 14.3177 21.9012 14.3298 22.0676 14.3418C22.0858 14.3418 22.107 14.3418 22.1251 14.3449C22.2038 14.3509 22.2825 14.3539 22.3581 14.363C24.4188 14.5474 26.0861 15.1276 27.4176 15.868C30.5404 17.5997 31.7387 20.4375 31.9535 21.0117C31.9777 21.0782 31.9898 21.1175 31.9898 21.1175C31.9898 21.1175 32.4861 13.9611 26.5461 11.7307V11.7216ZM19.32 12.7703C19.32 12.7703 19.3291 12.7703 19.3473 12.7673C19.3291 12.7673 19.32 12.7703 19.32 12.7703Z" fill="var(--fill-0, #37FF00)"/>
<path id="Vector_6" d="M19.4077 12.7764C19.3896 12.7764 19.3805 12.7794 19.3805 12.7794C19.3805 12.7794 19.4289 12.1115 20.8541 11.8153C18.8419 11.6219 16.0459 12.1206 14.7023 14.085C11.8488 18.2586 18.2579 21.1115 18.2579 21.1115C15.2985 18.73 14.1909 15.6444 18.627 14.5383C18.6331 14.5383 18.6361 14.5383 18.6422 14.5353C18.6482 14.5353 18.6543 14.5353 18.6603 14.5353C19.5106 14.363 20.5183 14.2723 21.6167 14.3146C21.7862 14.3207 21.9496 14.3328 22.113 14.3449C22.1311 14.3449 22.1523 14.3449 22.1705 14.3479C22.2491 14.3539 22.3248 14.357 22.4035 14.366C24.4581 14.5504 26.1163 15.1306 27.4447 15.868C30.5554 17.5967 31.7477 20.4345 31.9625 21.0057C31.9867 21.0722 31.9988 21.1115 31.9988 21.1115C29.687 11.5191 19.9827 12.6978 19.4047 12.7794L19.4077 12.7764Z" fill="var(--fill-0, #B7FF00)"/>
</g>
</g>
</svg>
