<svg viewBox="0 0 117.502 11.245" fill="none" xmlns="http://www.w3.org/2000/svg">
<g id="Group">
<path id="Vector" d="M50.9205 11.2269L53.9885 0.00226077H63.7001C64.0779 0.00226077 64.4261 0.206468 64.6583 0.560429C64.9223 0.966575 64.9746 1.45894 64.8335 1.96266C64.8085 2.04888 63.6295 6.37128 63.6295 6.37128C63.4292 7.086 62.7373 7.68728 62.1206 7.68728H61.5333L62.5234 11.2269H59.0025L58.0261 7.68728H55.3677L54.4004 11.2269H50.9205ZM60.5137 4.99401L61.1419 2.6978H56.731L56.1029 4.99401H60.5137Z" fill="var(--fill-0, white)"/>
<path id="Vector_2" d="M79.2063 11.2269L81.4527 8.48142L79.138 0.00226077H82.8479L84.2635 5.06208L88.4036 0.00226077H92.5618L83.3941 11.2269H79.2063Z" fill="var(--fill-0, white)"/>
<path id="Vector_3" d="M14.2089 11.2246C13.8038 11.2246 13.426 11.0045 13.1734 10.6188C12.8775 10.1695 12.7956 9.56599 12.948 9.00329L15.2582 0.55816C15.3082 0.376642 15.3446 0.240503 15.3697 0.138399L15.4061 0.00226077H19.0955L16.7694 8.52907H20.6295L22.9532 0.00226077H26.654L23.9137 10.0175C23.7157 10.7391 23.174 11.2246 22.5663 11.2246H14.2067H14.2089Z" fill="var(--fill-0, white)"/>
<path id="Vector_4" d="M66.0284 11.2246H65.7143C65.3069 11.2246 64.9291 11.0045 64.6765 10.6188C64.3806 10.1695 64.2964 9.56373 64.4512 9.00103L66.5815 1.20936C66.7795 0.48783 67.3212 1.17375e-07 67.9289 1.17375e-07H78.1594L77.422 2.69554H69.868L68.7004 6.96576L68.293 8.52454C68.6139 8.52454 69.6723 8.52908 69.7883 8.52908L75.8265 8.52454L75.0891 11.2246L66.0262 11.2201L66.0284 11.2246Z" fill="var(--fill-0, white)"/>
<path id="Vector_5" d="M0.735142 8.54042L1.48849 8.54496C3.373 8.55858 7.78612 8.58807 8.00007 8.58807L8.43478 6.98391H3.00884C2.62876 6.98391 2.25094 6.78197 2.00741 6.41439C1.70698 5.9606 1.61822 5.34117 1.77071 4.76031L2.74028 1.20936C2.93146 0.485561 3.45038 0 4.03076 0H13.8562L13.1256 2.69554H5.91754L5.48283 4.28836H10.9384C11.3116 4.28836 11.6462 4.4835 11.8806 4.83972C12.1765 5.29125 12.2561 5.91522 12.0946 6.50969L11.1546 9.8882C10.9361 10.7232 10.4445 11.2405 9.83678 11.2405H0L0.74197 8.53589L0.735142 8.54042Z" fill="var(--fill-0, white)"/>
<path id="Vector_6" d="M25.1496 11.245L28.2153 0.00226077H37.5969C37.9997 0.00226077 38.3776 0.222351 38.6279 0.603539C38.9238 1.05053 39.0103 1.65408 38.8578 2.21678C38.8123 2.38922 38.7804 2.50494 38.7781 2.52309L37.6879 6.49153C37.4899 7.21307 36.9482 7.69863 36.3428 7.69863H29.8108L28.8412 11.2428H25.1496V11.245ZM34.4014 5.00081L35.0273 2.70234H31.1718L30.5459 5.00081H34.4014Z" fill="var(--fill-0, white)"/>
<path id="Vector_7" d="M92.6392 11.2246H92.3251C91.9177 11.2246 91.5399 11.0045 91.2895 10.6211C90.9936 10.1718 90.9094 9.56599 91.0642 9.00329L93.1968 1.21162C93.3948 0.487821 93.9365 0.00226077 94.5442 0.00226077H104.772L104.035 2.6978H96.5151L94.922 8.52907C95.2429 8.52907 96.2875 8.53361 96.4036 8.53361L102.44 8.52907L101.7 11.2292L92.6392 11.2246Z" fill="var(--fill-0, white)"/>
<path id="Vector_8" d="M105.728 11.2246H105.353C104.791 11.2246 104.279 10.9387 103.98 10.4577C103.714 10.0289 103.689 9.52515 103.851 9.03278L103.908 8.85807L106.325 0.00226077H110.474L108.139 8.5268C108.541 8.5268 110.096 8.53134 110.237 8.53134L117.502 8.5268L116.765 11.2269L105.728 11.2223V11.2246Z" fill="var(--fill-0, white)"/>
<path id="Vector_9" d="M40.1164 11.2246H39.8023C39.3949 11.2246 39.0171 11.0045 38.7667 10.6211C38.4709 10.1718 38.3867 9.56599 38.5414 9.00329L40.674 1.21162C40.872 0.487821 41.4137 0.00226077 42.0214 0.00226077H52.2496L51.5122 2.6978H43.9765L42.3833 8.52907C42.7042 8.52907 43.7648 8.53361 43.8809 8.53361L49.9168 8.52907L49.1793 11.2292L40.1164 11.2246Z" fill="var(--fill-0, white)"/>
<path id="Vector_10" d="M44.8527 4.73762L51.1936 3.88676L50.4789 6.51196L44.1358 7.3651L44.8527 4.73762Z" fill="var(--fill-0, #B7FF00)"/>
</g>
</svg>
