<svg width="48" height="48" viewBox="0 0 48 48" fill="none" xmlns="http://www.w3.org/2000/svg">
<path d="M27.9451 24.2693C29.9085 25.7225 30.4958 26.2927 30.8001 27.7631C31.1731 29.5678 29.8528 31.2482 26.5219 31.9598C26.299 32.007 25.2144 32.1913 24.3699 32.2556C23.8212 32.2985 23.2339 32.3156 22.608 32.3156C22.4066 32.3156 22.2094 32.3156 21.9993 32.3071C20.5804 32.2728 19.2386 32.0584 17.9954 31.7284C17.9654 31.7198 17.9354 31.7112 17.9011 31.7026C17.7897 31.6726 17.6782 31.6426 17.571 31.6083C16.9109 31.4154 16.2893 31.1882 15.7063 30.931C15.6934 30.9267 15.6806 30.9181 15.6677 30.9139C15.5477 30.8624 15.4276 30.8067 15.3119 30.7552C15.269 30.7338 15.2304 30.7167 15.1876 30.6952C15.1061 30.6567 15.0247 30.6138 14.9432 30.5752C14.8789 30.5452 14.8146 30.5109 14.7546 30.4809C14.6989 30.4509 14.6474 30.4252 14.5917 30.3952C14.5145 30.3523 14.4374 30.3137 14.3645 30.2708C14.2959 30.2323 14.2316 30.1937 14.1673 30.1551C14.1202 30.1294 14.0687 30.0994 14.0216 30.0736C14.0216 30.0736 14.0173 30.0736 14.013 30.0694C8.70592 26.9314 7.03407 21.6372 7.03407 21.6372C7.03407 21.6372 6.13384 33.0701 13.5886 35.8866C13.5886 35.8866 12.1096 37.417 8.32011 36.6625C8.32011 36.6625 11.9982 41.1936 22.398 41.0393C37.4318 40.8164 40.0854 25.7868 27.9494 24.265L27.9451 24.2693Z" fill="#37FF00"/>
<path d="M21.931 15.9741C21.931 15.9741 21.9612 15.9698 21.9785 15.9656C21.9698 15.9656 21.9612 15.9656 21.9526 15.9656C21.9439 15.9656 21.9396 15.9656 21.931 15.9698V15.9741Z" fill="#37FF00"/>
<path d="M27.9622 24.3422C29.9256 25.7954 30.5772 26.4813 30.8172 27.8359C31.4088 31.1711 26.6419 31.9213 26.6419 31.9213C26.419 31.9684 25.2101 32.1913 24.3699 32.2556C23.8212 32.2985 23.3796 32.3114 22.7538 32.3114C22.5523 32.3114 22.3551 32.3114 22.145 32.3028C20.7261 32.2685 19.4401 32.1056 18.1969 31.7798C9.43893 29.4563 7.03403 21.6372 7.03403 21.6372C9.01025 34.8877 21.7549 34.4891 21.7549 34.4891C20.6018 35.2993 19.1271 35.6079 19.1271 35.6079C19.1271 35.6079 23.2082 36.6925 27.6621 35.2521C31.0101 34.1718 32.5105 32.1828 32.8663 29.9536C33.4836 26.1212 27.9579 24.3379 27.9579 24.3379L27.9622 24.3422Z" fill="#B7FF00"/>
<path d="M33.2736 12.279C33.2736 12.279 34.6454 10.8 38.4821 10.9286C38.4821 10.9286 31.2417 4.67848 20.1603 7.94503C9.83335 10.9887 7.88285 24.0248 21.442 25.6024C17.2324 22.2201 15.6548 17.839 21.9693 16.27C21.9779 16.27 21.9822 16.27 21.9907 16.2657C21.9993 16.2657 22.0079 16.2657 22.0165 16.2657C23.2253 16.0214 24.6571 15.8928 26.2218 15.9528C26.4619 15.9614 26.6934 15.9785 26.9291 15.9957C26.9549 15.9957 26.9849 15.9957 27.0106 15.9999C27.122 16.0085 27.2335 16.0128 27.3407 16.0257C30.26 16.2872 32.622 17.1102 34.5082 18.1605C38.9322 20.6168 40.6298 24.6421 40.9341 25.4566C40.9684 25.551 40.9856 25.6067 40.9856 25.6067C40.9856 25.6067 41.6886 15.4555 33.2736 12.2919V12.279ZM23.0367 13.7665C23.0367 13.7665 23.0496 13.7665 23.0753 13.7622C23.0496 13.7622 23.0367 13.7665 23.0367 13.7665Z" fill="#37FF00"/>
<path d="M23.1613 13.7752C23.1356 13.7752 23.1228 13.7795 23.1228 13.7795C23.1228 13.7795 23.1914 12.8321 25.2104 12.412C22.3597 12.1376 18.3987 12.845 16.4954 15.6314C12.4529 21.5515 21.5324 25.5982 21.5324 25.5982C17.3399 22.2202 15.7709 17.8434 22.0553 16.2744C22.0639 16.2744 22.0682 16.2744 22.0768 16.2701C22.0854 16.2701 22.0939 16.2701 22.1025 16.2701C23.3071 16.0258 24.7346 15.8972 26.2907 15.9572C26.5308 15.9658 26.7623 15.9829 26.9938 16.0001C27.0195 16.0001 27.0495 16.0001 27.0752 16.0043C27.1867 16.0129 27.2938 16.0172 27.4053 16.0301C30.316 16.2916 32.6652 17.1146 34.5471 18.1606C38.9539 20.6127 40.643 24.638 40.9473 25.4482C40.9816 25.5425 40.9988 25.5982 40.9988 25.5982C37.7236 11.9919 23.9758 13.6637 23.1571 13.7795L23.1613 13.7752Z" fill="#B7FF00"/>
</svg>
